<svg xmlns="http://www.w3.org/2000/svg" viewBox="0 0 306.41 150.8"><defs><style>.cls-1{fill:#fff;}</style></defs><g id="Gesture"><path class="cls-1" d="M289.34,34.29c-14-18.51-32.84-27.72-56-27.77-53.14-.11-106.29,0-159.43,0-18.92,0-35.49,5.87-49.4,19.05C4,45-2.31,75.62,9.5,101.07c12.32,26.58,33.85,40.17,63.25,40.35,39.06.23,78.11.08,117.17,0,2.55,0,57.26-1.3,59.66-1.83A65.81,65.81,0,0,0,289.24,114C306.73,90.59,306.84,57.47,289.34,34.29Zm-30.93,87.38a59.15,59.15,0,0,1-8.9,3.5c-2.29.7-56.34,2.34-58.62,2.34-40.66-.09-81.31.11-122-.19-25-.18-47.51-20.41-51-45.1-4.21-29.39,12.65-54.3,41.51-61.3A61.78,61.78,0,0,1,74,19.6q39.52,0,79.06,0c26.46,0,52.92,0,79.39,0,12,0,23.2,2.74,33.15,9.76A53.58,53.58,0,0,1,258.41,121.67Z"/><path id="pijl" class="cls-1" d="M139.07,65.63c-3.76-3.73-7.6-7.37-11.26-11.19s-2.25-9.67,2.77-11.26a6.15,6.15,0,0,1,6.48,1.64c8.11,8,16.21,16.06,24.19,24.21,2.62,2.69,2.42,6.49-.27,9.2q-11.35,11.47-22.86,22.82c-3.34,3.29-7.65,3.39-10.56.47s-2.44-6.74.95-10.14c3.57-3.58,7.18-7.13,11.41-11.33H64.53a9.78,9.78,0,0,1-5-.84,6.74,6.74,0,0,1-3.33-7.34,6.19,6.19,0,0,1,5.32-5.23A25.5,25.5,0,0,1,66,66.42h72.56Z"/></g></svg>