<svg xmlns="http://www.w3.org/2000/svg" viewBox="0 0 145.43 308.69"><defs><style>.cls-1{fill:#fff;}</style></defs><g id="Gesture"><path class="cls-1" d="M32.35,18C13.84,32,4.63,50.85,4.58,74c-.11,53.14,0,106.28,0,159.42,0,18.93,5.87,35.49,19.05,49.41,19.43,20.5,50.09,26.83,75.54,15,26.58-12.33,40.17-33.86,40.35-63.26.23-39.05.08-78.11,0-117.17,0-2.54-1.3-57.26-1.82-59.66A65.85,65.85,0,0,0,112,18.11C88.65.62,55.53.5,32.35,18Zm87.38,30.92a58.85,58.85,0,0,1,3.5,8.91c.7,2.29,2.34,56.33,2.34,58.62-.09,40.65.11,81.3-.19,122-.18,25-20.41,47.51-45.1,51C50.89,293.67,26,276.8,19,248a61.83,61.83,0,0,1-1.32-14.61q0-39.54,0-79.07c0-26.46,0-52.92,0-79.38,0-12,2.74-23.21,9.76-33.16A53.58,53.58,0,0,1,119.73,48.93Z"/><path id="pijl" class="cls-1" d="M63.69,227.22C60,223.46,56.32,219.62,52.5,216s-9.67-2.25-11.26,2.77a6.15,6.15,0,0,0,1.64,6.48c8,8.12,16.06,16.21,24.21,24.19,2.69,2.62,6.49,2.42,9.2-.27q11.47-11.35,22.82-22.86c3.29-3.34,3.39-7.65.47-10.56s-6.74-2.44-10.14.95c-3.58,3.57-7.13,7.18-11.33,11.41v-4q0-35.67,0-71.34a9.8,9.8,0,0,0-.84-5,6.74,6.74,0,0,0-7.34-3.33,6.2,6.2,0,0,0-5.23,5.32,25.62,25.62,0,0,0-.23,4.47q0,34.71,0,69.42v3.13Z"/></g></svg>